<svg width="24" height="24" viewBox="0 0 24 24" fill="none" xmlns="http://www.w3.org/2000/svg">
<path d="M16.6519 14.9626C16.4164 15.7112 16.0036 16.3919 15.4487 16.9469C14.8937 17.5018 14.213 17.9146 13.4644 18.1501C13.3551 18.1841 13.2413 18.2014 13.1269 18.2016C12.8579 18.2018 12.5979 18.1057 12.3937 17.9306C12.1896 17.7556 12.0549 17.5132 12.0141 17.2473C11.9733 16.9815 12.029 16.7099 12.1713 16.4817C12.3135 16.2534 12.5328 16.0837 12.7894 16.0032C13.1928 15.8764 13.5597 15.6541 13.8587 15.355C14.1578 15.056 14.3801 14.6892 14.5069 14.2857C14.5512 14.1447 14.6228 14.0139 14.7177 13.9006C14.8126 13.7873 14.9289 13.6939 15.0599 13.6255C15.3245 13.4875 15.6331 13.4603 15.9178 13.5498C16.0588 13.5941 16.1896 13.6657 16.3029 13.7606C16.4162 13.8555 16.5097 13.9718 16.578 14.1028C16.6463 14.2338 16.6882 14.377 16.7012 14.5242C16.7142 14.6714 16.6981 14.8197 16.6537 14.9607L16.6519 14.9626ZM20.625 13.5001C20.625 15.7876 19.7163 17.9814 18.0988 19.5989C16.4813 21.2164 14.2875 22.1251 12 22.1251C9.71251 22.1251 7.51871 21.2164 5.9012 19.5989C4.2837 17.9814 3.375 15.7876 3.375 13.5001C3.375 10.7991 4.43156 8.0457 6.51375 5.31758C6.6102 5.19116 6.73235 5.08663 6.87215 5.01088C7.01195 4.93512 7.16622 4.88986 7.32479 4.87807C7.48336 4.86629 7.64262 4.88826 7.79208 4.94252C7.94154 4.99679 8.0778 5.08212 8.19187 5.19289L10.0378 6.98445L11.9062 1.86476C11.968 1.69537 12.0696 1.54331 12.2025 1.4214C12.3353 1.29948 12.4955 1.21128 12.6696 1.16423C12.8436 1.11717 13.0264 1.11265 13.2026 1.15103C13.3788 1.18941 13.5432 1.26957 13.6819 1.38476C15.7688 3.11726 20.625 7.76726 20.625 13.5001ZM18.375 13.5001C18.375 9.58976 15.5053 6.15101 13.4512 4.19164L11.5566 9.38539C11.4923 9.56169 11.3849 9.7191 11.2442 9.84329C11.1035 9.96748 10.934 10.0545 10.7511 10.0964C10.5681 10.1384 10.3776 10.1339 10.1969 10.0834C10.0162 10.0329 9.85093 9.93795 9.71625 9.80727L7.56656 7.72133C6.28125 9.69195 5.625 11.6307 5.625 13.5001C5.625 15.1908 6.29665 16.8123 7.49219 18.0079C8.68774 19.2034 10.3092 19.8751 12 19.8751C13.6908 19.8751 15.3123 19.2034 16.5078 18.0079C17.7034 16.8123 18.375 15.1908 18.375 13.5001Z" fill="#252228"/>
</svg>
