<svg width="91" height="20" viewBox="0 0 91 20" fill="none" xmlns="http://www.w3.org/2000/svg">
<path d="M83.9006 16.8777C82.5525 16.8777 81.357 16.5852 80.3141 16.0002C79.284 15.4024 78.4764 14.5885 77.8913 13.5583C77.3063 12.5154 77.0138 11.3263 77.0138 9.99089C77.0138 8.63005 77.3063 7.43455 77.8913 6.40438C78.4764 5.3615 79.2776 4.54754 80.295 3.96251C81.3252 3.37748 82.508 3.08496 83.8434 3.08496C85.1915 3.08496 86.3743 3.38384 87.3917 3.98159C88.4219 4.56662 89.2295 5.38058 89.8145 6.42346C90.3996 7.45363 90.6921 8.64277 90.6921 9.99089C90.6921 11.3263 90.3996 12.5154 89.8145 13.5583C89.2422 14.5885 88.441 15.4024 87.4108 16.0002C86.3934 16.5852 85.2233 16.8777 83.9006 16.8777ZM83.9006 14.4931C84.7146 14.4931 85.4268 14.3023 86.0373 13.9208C86.6604 13.5265 87.1437 12.9924 87.4871 12.3183C87.8432 11.6442 88.0213 10.8684 88.0213 9.99089C88.0213 9.10062 87.8432 8.31846 87.4871 7.6444C87.131 6.97034 86.6414 6.44254 86.0182 6.061C85.395 5.66673 84.6701 5.4696 83.8434 5.4696C83.0422 5.4696 82.3236 5.66673 81.6877 6.061C81.0645 6.44254 80.5748 6.97034 80.2187 7.6444C79.8626 8.31846 79.6846 9.10062 79.6846 9.99089C79.6846 10.8684 79.8626 11.6442 80.2187 12.3183C80.5748 12.9924 81.0708 13.5265 81.7067 13.9208C82.3427 14.3023 83.0739 14.4931 83.9006 14.4931Z" fill="black"/>
<path d="M61.1332 16.6489V3.29494H63.8613L70.3856 12.2612V3.29494H72.9801V16.6489H70.3856L63.7468 7.51099V16.6489H61.1332Z" fill="black"/>
<path d="M51.0203 16.916C49.9138 16.916 48.9536 16.6998 48.1397 16.2674C47.3257 15.835 46.6962 15.2309 46.251 14.4551C45.8186 13.6665 45.6024 12.7381 45.6024 11.6698V3.29494H48.216V11.6698C48.216 12.2421 48.3304 12.7445 48.5594 13.1769C48.801 13.5966 49.1317 13.9209 49.5514 14.1498C49.9838 14.3788 50.4861 14.4932 51.0585 14.4932C51.6308 14.4932 52.1268 14.3788 52.5465 14.1498C52.9789 13.9209 53.3096 13.5966 53.5385 13.1769C53.7801 12.7445 53.901 12.2421 53.901 11.6698V3.29494H56.5145V11.6698C56.5145 12.7381 56.2856 13.6665 55.8277 14.4551C55.3826 15.2309 54.7467 15.835 53.92 16.2674C53.1061 16.6998 52.1395 16.916 51.0203 16.916Z" fill="black"/>
<path d="M27.5286 16.6489V3.29494H30.3711L34.2628 9.05623L38.1545 3.29494H40.9779V16.6489H38.3835V7.37745L34.2628 13.444L30.1421 7.39652V16.6489H27.5286Z" fill="black"/>
<path fill-rule="evenodd" clip-rule="evenodd" d="M18.6566 0C20.8657 0 22.6566 1.79086 22.6566 4V16C22.6566 18.1401 20.9758 19.8877 18.8623 19.9948L18.6566 20H11.9899L11.7842 19.9948C9.73879 19.8912 8.09874 18.2511 7.99512 16.2057L7.98991 16V4C7.98991 1.79086 9.78077 6.44255e-08 11.9899 0H18.6566ZM11.9899 2.20052C10.9958 2.20052 10.1904 3.00589 10.1904 4V16C10.1904 16.9941 10.9958 17.7995 11.9899 17.7995H18.6566C19.6507 17.7995 20.4561 16.9941 20.4561 16V4C20.4561 3.00589 19.6507 2.20052 18.6566 2.20052H11.9899Z" fill="#43299B"/>
<path d="M6.68791 1.96615C6.51352 2.41505 6.41582 2.90222 6.41577 3.41276V4.31641L3.53557 5.08984C2.57537 5.34714 2.00488 6.33406 2.26213 7.29427L4.47958 15.5664C4.71334 16.4388 5.54856 16.9863 6.41968 16.8867L6.42098 16.888C6.4606 17.6687 6.7245 18.3899 7.14885 18.9896L7.05249 19.013C5.05024 19.4419 3.04258 18.2819 2.41317 16.3333L2.35458 16.1367L0.137127 7.86328C-0.416477 5.7963 0.755147 3.67395 2.76864 3.02344L2.96656 2.96484L6.68791 1.96615Z" fill="#43299B"/>
</svg>
